<svg xmlns="http://www.w3.org/2000/svg" width="209" height="95" viewBox="0 0 209 95" fill="none"><path d="M151.688 48.7734C154.097 47.8831 155.69 47.2209 157.328 46.7023C166.892 43.6699 175.591 48.9272 176.485 58.8083C177.147 66.1672 176.835 73.6105 177.047 81.0116C177.144 84.3802 175.136 84.6556 172.493 84.6641C169.888 84.6725 168.449 83.941 168.49 81.0589C168.569 75.2104 168.56 69.3601 168.461 63.5081C168.387 59.0617 168.076 54.6186 162.117 54.1085C157.234 53.6895 152.687 57.2524 152.119 62.7901C151.524 68.5863 151.719 74.4704 151.729 80.3156C151.729 83.0592 151.189 84.6945 147.881 84.6928C144.736 84.6928 143.263 83.8971 143.293 80.4474C143.421 66.2111 143.392 51.9748 143.303 37.7385C143.286 34.8159 144.21 33.5235 147.314 33.4914C150.564 33.4593 151.947 34.554 151.741 37.904C151.524 41.3318 151.688 44.7848 151.688 48.7734Z" fill="#E22044"></path><path d="M128.071 45.8621C131.387 45.8823 134.23 47.1865 136.653 49.2104C138.046 50.3744 141.135 51.3964 138.601 54.0572C136.942 55.7989 135.502 59.2013 132.128 56.0304C131.309 55.26 130.177 54.7093 129.091 54.3562C127.486 53.8342 125.913 54.0927 125.097 55.7888C124.367 57.3092 125.265 58.5053 126.419 59.279C128.841 60.9025 131.449 62.2523 133.865 63.8842C138.102 66.7562 140.251 70.662 139.194 75.8787C138.107 81.2594 134.601 84.4371 129.35 85.3916C124.204 86.3258 119.687 84.628 116.137 80.7796C113.7 78.1408 116.446 76.6913 117.708 74.9107C119.101 72.9477 120.381 73.2366 121.943 74.8009C122.909 75.7536 124.051 76.5086 125.303 77.0241C127.335 77.8587 129.242 77.2843 130.439 75.4615C131.835 73.3312 130.607 71.7449 128.834 70.5843C126.07 68.7699 122.991 67.3525 120.481 65.2509C116.489 61.9127 115.411 57.4798 117.422 52.6026C119.361 47.9096 123.211 46.0259 128.071 45.8621Z" fill="#E22044"></path><path d="M113.099 66.1226C113.099 70.9829 112.968 75.85 113.143 80.7053C113.255 83.8492 111.857 84.6939 108.955 84.6719C106.167 84.6516 104.601 84.057 104.643 80.8184C104.774 70.7093 104.779 60.5984 104.658 50.4858C104.616 47.0733 106.52 46.8098 109.143 46.8064C111.679 46.8064 113.207 47.4213 113.136 50.3727C113.018 55.6198 113.101 60.8721 113.099 66.1226Z" fill="#E22044"></path><path d="M190.283 65.9561C190.283 70.8029 190.186 75.6531 190.315 80.4965C190.392 83.3972 189.414 84.6574 186.314 84.6963C183.079 84.7368 181.792 83.6624 181.836 80.3681C181.963 70.6745 181.963 60.9804 181.836 51.2857C181.802 48.1688 182.755 46.7463 186.144 46.7446C189.651 46.7446 190.399 48.3951 190.317 51.414C190.189 56.2575 190.287 61.1076 190.283 65.9561Z" fill="#E22044"></path><path d="M191.717 38.0545C191.144 41.6461 189.518 43.8135 186.004 43.7763C182.505 43.7341 180.554 41.7069 180.563 38.3281C180.571 34.9494 182.561 32.9509 186.048 32.9424C189.598 32.9306 191.047 35.2704 191.717 38.0545Z" fill="#E22044"></path><path d="M109.118 32.876C112.515 33.2645 114.431 35.0907 114.298 38.5489C114.166 42.007 112.095 43.8636 108.701 43.764C105.254 43.6626 103.426 41.5559 103.513 38.1468C103.607 34.6498 105.757 33.0719 109.118 32.876Z" fill="#E22044"></path><path d="M57.1077 2.51341C32.2101 2.37826 12.9117 21.5154 12.7655 46.5045C12.6143 70.9041 31.8942 90.0649 56.733 90.2017C81.8574 90.3386 101.221 71.3501 101.265 46.5248C101.32 21.4597 82.4473 2.65193 57.1077 2.51341ZM56.207 80.074C37.6497 79.8256 22.8415 64.6112 23.2381 46.1988C23.6465 27.2542 38.9101 12.0887 57.2774 12.381C76.3976 12.6834 90.9235 27.8303 90.6882 47.2208C90.4597 66.1519 75.5759 80.3324 56.207 80.074Z" fill="#E22044"></path></svg>