<svg xmlns="http://www.w3.org/2000/svg" width="243" height="151" viewBox="0 0 243 151" fill="none"><path d="M182.024 56.5016C184.956 55.4184 186.896 54.6126 188.891 53.9816C200.535 50.2919 211.128 56.6887 212.217 68.7115C213.023 77.6654 212.643 86.722 212.9 95.7273C213.019 99.826 210.574 100.161 207.355 100.171C204.184 100.182 202.432 99.2916 202.481 95.7848C202.578 88.6686 202.567 81.5503 202.447 74.4299C202.357 69.0198 201.978 63.6138 194.722 62.993C188.776 62.4832 183.239 66.8183 182.548 73.5563C181.823 80.6089 182.061 87.7683 182.073 94.8804C182.073 98.2186 181.416 100.208 177.387 100.206C173.559 100.206 171.765 99.2381 171.801 95.0407C171.957 77.7188 171.922 60.3969 171.814 43.0749C171.793 39.5189 172.919 37.9464 176.698 37.9073C180.655 37.8683 182.339 39.2003 182.087 43.2764C181.823 47.447 182.024 51.6485 182.024 56.5016Z" fill="#E22044"></path><path d="M153.267 52.96C157.304 52.9846 160.766 54.5715 163.717 57.034C165.413 58.4503 169.174 59.6939 166.088 62.9313C164.069 65.0506 162.315 69.1904 158.207 65.3322C157.21 64.3949 155.831 63.7248 154.509 63.2952C152.555 62.66 150.64 62.9745 149.646 65.0382C148.758 66.8882 149.85 68.3435 151.256 69.285C154.204 71.2603 157.38 72.9027 160.322 74.8883C165.481 78.3827 168.098 83.1351 166.811 89.4826C165.487 96.0294 161.219 99.8959 154.824 101.057C148.559 102.194 143.059 100.128 138.735 95.4457C135.769 92.2349 139.112 90.4713 140.649 88.3048C142.345 85.9162 143.904 86.2677 145.805 88.1712C146.982 89.3303 148.372 90.249 149.897 90.8762C152.371 91.8917 154.693 91.1928 156.15 88.9749C157.851 86.3828 156.355 84.4527 154.196 83.0406C150.83 80.8329 147.082 79.1083 144.025 76.5513C139.165 72.4895 137.852 67.0958 140.301 61.1615C142.662 55.4513 147.35 53.1593 153.267 52.96Z" fill="#E22044"></path><path d="M135.037 77.612C135.037 83.5258 134.877 89.4478 135.09 95.3554C135.227 99.1807 133.525 100.208 129.991 100.182C126.597 100.157 124.69 99.4335 124.741 95.4931C124.9 83.1928 124.906 70.8905 124.759 58.5861C124.708 54.4339 127.026 54.1132 130.22 54.1091C133.308 54.1091 135.168 54.8573 135.082 58.4483C134.939 64.8328 135.039 71.2235 135.037 77.612Z" fill="#E22044"></path><path d="M229.018 77.4087C229.018 83.306 228.899 89.2074 229.057 95.1006C229.151 98.6299 227.96 100.163 224.185 100.211C220.246 100.26 218.679 98.9527 218.732 94.9444C218.887 83.1498 218.887 71.3545 218.732 59.5585C218.691 55.766 219.851 54.0353 223.978 54.0332C228.248 54.0332 229.159 56.0415 229.059 59.7147C228.903 65.6079 229.022 71.5093 229.018 77.4087Z" fill="#E22044"></path><path d="M230.764 43.4596C230.066 47.8296 228.086 50.4669 223.807 50.4217C219.547 50.3703 217.171 47.9036 217.182 43.7926C217.192 39.6815 219.615 37.2498 223.86 37.2396C228.184 37.2252 229.948 40.0721 230.764 43.4596Z" fill="#E22044"></path><path d="M130.189 37.1594C134.326 37.6322 136.659 39.8542 136.497 44.0619C136.336 48.2696 133.815 50.5286 129.681 50.4073C125.485 50.284 123.259 47.7207 123.365 43.5727C123.48 39.3177 126.097 37.3979 130.189 37.1594Z" fill="#E22044"></path><path d="M66.8605 0.215221C36.5448 0.0507788 13.0468 23.3358 12.8688 53.7412C12.6846 83.4292 36.1601 106.743 66.4043 106.909C96.9963 107.076 120.574 83.9718 120.627 53.7658C120.695 23.268 97.7145 0.383774 66.8605 0.215221ZM65.7638 94.5866C43.1682 94.2844 25.1375 75.7723 25.6204 53.3691C26.1176 30.3184 44.7028 11.866 67.0672 12.2216C90.3483 12.5895 108.035 31.0194 107.749 54.6127C107.471 77.647 89.3477 94.9011 65.7638 94.5866Z" fill="#E22044"></path><path d="M9.46129 133.714L9.55263 125.038L9.52218 125.008L7.06362 133.714H5.11503L2.64886 125.008L2.61841 125.038L2.70975 133.714H0V122.126H3.7906L6.08171 129.755H6.11216L8.37282 122.126H12.171V133.714H9.46129Z" fill="white"></path><path d="M22.9655 133.714L22.4022 132.04H18.3985L17.7895 133.714H14.6231L19.251 122.126H21.5725L26.1624 133.714H22.9655ZM20.4384 125.734H20.3927L19.2053 129.694H21.6258L20.4384 125.734Z" fill="white"></path><path d="M35.777 133.714L31.3851 126.666L31.347 126.682L31.4307 133.714H28.6068V122.126H31.1491L35.6095 129.411L35.64 129.38L35.5106 122.126H38.3345V133.714H35.777Z" fill="white"></path><path d="M50.5219 129.128C50.5219 129.918 50.4559 130.557 50.324 131.047C50.1464 131.673 49.8292 132.219 49.3725 132.682C48.5555 133.518 47.4797 133.936 46.1452 133.936C45.4956 133.936 44.8969 133.842 44.3488 133.653C43.7297 133.439 43.2223 133.121 42.8265 132.698C42.3393 132.183 42.0146 131.633 41.8522 131.047C41.7811 130.782 41.7304 130.483 41.7 130.152C41.6797 129.887 41.6695 129.546 41.6695 129.128V122.126H44.6152V129.128C44.6152 129.434 44.6304 129.696 44.6609 129.915C44.7015 130.196 44.77 130.432 44.8664 130.626C45.0998 131.1 45.5159 131.337 46.1147 131.337C46.7338 131.337 47.1499 131.105 47.363 130.641C47.4493 130.453 47.5102 130.218 47.5457 129.938C47.566 129.734 47.5762 129.464 47.5762 129.128V122.126H50.5219V129.128Z" fill="white"></path><path d="M56.6732 124.725V126.697H60.0223V129.296H56.6732V133.714H53.8493V122.126H60.1441V124.725H56.6732Z" fill="white"></path><path d="M69.5837 133.714L69.0204 132.04H65.0167L64.4077 133.714H61.2413L65.8692 122.126H68.1907L72.7806 133.714H69.5837ZM67.0566 125.734H67.0109L65.8235 129.694H68.244L67.0566 125.734Z" fill="white"></path><path d="M85.1267 129.38C84.7917 130.741 84.0839 131.842 83.003 132.682C81.9323 133.518 80.6967 133.936 79.2961 133.936C77.6114 133.936 76.1779 133.355 74.9955 132.193C73.8081 131.026 73.2144 129.597 73.2144 127.905C73.2144 126.218 73.8031 124.794 74.9803 123.632C76.1525 122.485 77.581 121.912 79.2657 121.912C81.4578 121.912 83.1502 122.819 84.3427 124.633C84.7588 125.26 85.0201 125.892 85.1267 126.529H82.0363C81.5238 125.183 80.5952 124.511 79.2505 124.511C78.3421 124.511 77.5937 124.85 77.005 125.527C76.4418 126.18 76.1601 126.967 76.1601 127.889C76.1601 128.822 76.4418 129.62 77.005 130.282C77.5987 130.985 78.3523 131.337 79.2657 131.337C80.5241 131.337 81.4477 130.685 82.0363 129.38H85.1267Z" fill="white"></path><path d="M92.2523 124.725V133.714H89.3066V124.725H87.0307V122.126H94.5129V124.725H92.2523Z" fill="white"></path><path d="M105.787 129.128C105.787 129.918 105.721 130.557 105.589 131.047C105.411 131.673 105.094 132.219 104.638 132.682C103.821 133.518 102.745 133.936 101.41 133.936C100.761 133.936 100.162 133.842 99.6138 133.653C98.9948 133.439 98.4873 133.121 98.0915 132.698C97.6044 132.183 97.2796 131.633 97.1172 131.047C97.0462 130.782 96.9954 130.483 96.965 130.152C96.9447 129.887 96.9345 129.546 96.9345 129.128V122.126H99.8802V129.128C99.8802 129.434 99.8955 129.696 99.9259 129.915C99.9665 130.196 100.035 130.432 100.131 130.626C100.365 131.1 100.781 131.337 101.38 131.337C101.999 131.337 102.415 131.105 102.628 130.641C102.714 130.453 102.775 130.218 102.811 129.938C102.831 129.734 102.841 129.464 102.841 129.128V122.126H105.787V129.128Z" fill="white"></path><path d="M114.462 133.714L111.798 129.976H111.767V133.714H108.944V122.126H112.59C112.975 122.126 113.285 122.133 113.518 122.149C113.863 122.164 114.173 122.197 114.447 122.248C115.137 122.365 115.703 122.602 116.144 122.959C117.093 123.723 117.568 124.778 117.568 126.124C117.568 127.046 117.316 127.839 116.814 128.501C116.291 129.204 115.586 129.627 114.698 129.77L117.826 133.714H114.462ZM114.744 126.292C114.744 125.757 114.553 125.354 114.173 125.084C113.843 124.844 113.399 124.725 112.841 124.725H111.767V127.951H112.81C114.099 127.951 114.744 127.398 114.744 126.292Z" fill="white"></path><path d="M119.128 133.714V122.126H122.074V133.714H119.128Z" fill="white"></path><path d="M131.337 133.714L126.945 126.666L126.907 126.682L126.991 133.714H124.167V122.126H126.709L131.17 129.411L131.2 129.38L131.071 122.126H133.895V133.714H131.337Z" fill="white"></path><path d="M147.778 127.737C147.778 129.515 147.195 130.996 146.028 132.178C144.855 133.36 143.386 133.951 141.62 133.951C139.915 133.951 138.469 133.368 137.282 132.201C136.089 131.024 135.493 129.581 135.493 127.874C135.493 126.162 136.099 124.732 137.312 123.586C138.5 122.47 139.951 121.912 141.666 121.912C142.945 121.912 144.13 122.286 145.221 123.035C146.352 123.81 147.091 124.801 147.436 126.009H144.132C143.574 125.01 142.727 124.511 141.59 124.511C140.666 124.511 139.905 124.842 139.306 125.504C138.728 126.147 138.439 126.936 138.439 127.874C138.439 128.853 138.72 129.668 139.284 130.32C139.877 131.008 140.651 131.352 141.605 131.352C142.27 131.352 142.843 131.202 143.325 130.901C143.843 130.575 144.188 130.104 144.361 129.487H140.92V127.125H147.763C147.768 127.217 147.773 127.319 147.778 127.431V127.737Z" fill="white"></path><path d="M154.111 133.714V122.126H157.057V133.714H154.111Z" fill="white"></path><path d="M170.59 129.38C170.255 130.741 169.548 131.842 168.467 132.682C167.396 133.518 166.16 133.936 164.76 133.936C163.075 133.936 161.642 133.355 160.459 132.193C159.272 131.026 158.678 129.597 158.678 127.905C158.678 126.218 159.267 124.794 160.444 123.632C161.616 122.485 163.045 121.912 164.729 121.912C166.922 121.912 168.614 122.819 169.806 124.633C170.222 125.26 170.484 125.892 170.59 126.529H167.5C166.987 125.183 166.059 124.511 164.714 124.511C163.806 124.511 163.057 124.85 162.469 125.527C161.905 126.18 161.624 126.967 161.624 127.889C161.624 128.822 161.905 129.62 162.469 130.282C163.062 130.985 163.816 131.337 164.729 131.337C165.988 131.337 166.911 130.685 167.5 129.38H170.59Z" fill="white"></path><path d="M172.12 133.714V122.126H178.529V124.725H174.944V126.529H178.415V129.128H174.944V131.115H178.529V133.714H172.12Z" fill="white"></path><path d="M196.607 129.38C196.272 130.741 195.564 131.842 194.483 132.682C193.413 133.518 192.177 133.936 190.776 133.936C189.092 133.936 187.658 133.355 186.476 132.193C185.288 131.026 184.695 129.597 184.695 127.905C184.695 126.218 185.283 124.794 186.461 123.632C187.633 122.485 189.061 121.912 190.746 121.912C192.938 121.912 194.63 122.819 195.823 124.633C196.239 125.26 196.5 125.892 196.607 126.529H193.517C193.004 125.183 192.076 124.511 190.731 124.511C189.822 124.511 189.074 124.85 188.485 125.527C187.922 126.18 187.64 126.967 187.64 127.889C187.64 128.822 187.922 129.62 188.485 130.282C189.079 130.985 189.833 131.337 190.746 131.337C192.004 131.337 192.928 130.685 193.517 129.38H196.607Z" fill="white"></path><path d="M204.92 133.714L202.256 129.976H202.225V133.714H199.402V122.126H203.048C203.433 122.126 203.743 122.133 203.976 122.149C204.321 122.164 204.631 122.197 204.905 122.248C205.595 122.365 206.161 122.602 206.602 122.959C207.551 123.723 208.026 124.778 208.026 126.124C208.026 127.046 207.774 127.839 207.272 128.501C206.749 129.204 206.044 129.627 205.156 129.77L208.284 133.714H204.92ZM205.202 126.292C205.202 125.757 205.011 125.354 204.631 125.084C204.301 124.844 203.857 124.725 203.299 124.725H202.225V127.951H203.268C204.557 127.951 205.202 127.398 205.202 126.292Z" fill="white"></path><path d="M210.749 133.714V122.126H217.158V124.725H213.573V126.529H217.044V129.128H213.573V131.115H217.158V133.714H210.749Z" fill="white"></path><path d="M226.422 133.714L225.859 132.04H221.855L221.246 133.714H218.079L222.707 122.126H225.029L229.619 133.714H226.422ZM223.895 125.734H223.849L222.662 129.694H225.082L223.895 125.734Z" fill="white"></path><path d="M240.26 133.714L240.351 125.038L240.321 125.008L237.862 133.714H235.914L233.447 125.008L233.417 125.038L233.508 133.714H230.799V122.126H234.589L236.88 129.755H236.911L239.171 122.126H242.97V133.714H240.26Z" fill="white"></path><path d="M12.4582 144.697C12.4582 146.475 11.8746 147.956 10.7075 149.138C9.5353 150.32 8.06625 150.912 6.30035 150.912C4.59534 150.912 3.14912 150.328 1.96171 149.161C0.769213 147.984 0.172967 146.542 0.172967 144.834C0.172967 143.122 0.779362 141.693 1.99215 140.546C3.17957 139.43 4.63086 138.872 6.34602 138.872C7.62478 138.872 8.80966 139.246 9.90066 139.996C11.0323 140.77 11.7706 141.761 12.1157 142.969H8.8122C8.25401 141.97 7.40658 141.471 6.2699 141.471C5.34636 141.471 4.58519 141.802 3.98641 142.465C3.40792 143.107 3.11868 143.897 3.11868 144.834C3.11868 145.813 3.40031 146.628 3.96357 147.281C4.55728 147.969 5.33113 148.313 6.28513 148.313C6.94988 148.313 7.52329 148.162 8.00536 147.862C8.52295 147.535 8.86801 147.064 9.04055 146.447H5.60008V144.085H12.443C12.448 144.177 12.4531 144.279 12.4582 144.391V144.697Z" fill="white"></path><path d="M13.9805 150.675V139.086H20.3895V141.685H16.8044V143.489H20.2754V146.088H16.8044V148.076H20.3895V150.675H13.9805Z" fill="white"></path><path d="M22.2924 150.675V139.086H25.2381V148.076H28.6558V150.675H22.2924Z" fill="white"></path><path d="M36.9753 150.675L36.4121 149.001H32.4083L31.7994 150.675H28.6329L33.2608 139.086H35.5824L40.1722 150.675H36.9753ZM34.4483 142.694H34.4026L33.2152 146.654H35.6357L34.4483 142.694Z" fill="white"></path><path d="M44.2521 141.685V150.675H41.3064V141.685H39.0305V139.086H46.5127V141.685H44.2521Z" fill="white"></path><path d="M59.3688 144.88C59.3688 146.582 58.7751 148.014 57.5877 149.176C56.4053 150.323 54.9642 150.896 53.2643 150.896C51.61 150.896 50.1917 150.333 49.0093 149.207C47.8016 148.065 47.1978 146.672 47.1978 145.025C47.1978 144.149 47.3475 143.323 47.6469 142.549C47.8042 142.136 48.0554 141.703 48.4004 141.249C49.598 139.664 51.2243 138.872 53.2795 138.872C54.9744 138.872 56.4104 139.448 57.5877 140.599C58.7751 141.756 59.3688 143.183 59.3688 144.88ZM56.4231 144.896C56.4231 143.963 56.1389 143.168 55.5706 142.511C54.9667 141.817 54.2081 141.471 53.2947 141.471C52.3712 141.471 51.61 141.807 51.0112 142.48C50.4327 143.127 50.1435 143.917 50.1435 144.85C50.1435 145.803 50.4353 146.608 51.0188 147.265C51.6227 147.953 52.3915 148.297 53.3252 148.297C54.2233 148.297 54.9718 147.951 55.5706 147.258C56.1389 146.6 56.4231 145.813 56.4231 144.896Z" fill="white"></path><path d="M75.2011 146.012C74.9473 146.603 74.6556 147.112 74.3257 147.54L75.9013 149.169L74.143 150.912L72.7806 149.497C72.2477 149.961 71.72 150.308 71.1973 150.537C70.6138 150.787 69.9947 150.912 69.3401 150.912C68.3252 150.912 67.4422 150.611 66.6912 150.01C65.8895 149.362 65.4886 148.539 65.4886 147.54C65.4886 146.842 65.6992 146.221 66.1204 145.675C66.303 145.441 66.5314 145.209 66.8054 144.98C67.0236 144.791 67.2976 144.587 67.6275 144.368C66.8967 143.619 66.5314 142.783 66.5314 141.861C66.5314 140.994 66.8511 140.276 67.4904 139.705C68.1095 139.15 68.8555 138.872 69.7283 138.872C70.5656 138.872 71.2734 139.134 71.8519 139.659C72.4507 140.204 72.7501 140.892 72.7501 141.723C72.7501 142.289 72.603 142.801 72.3086 143.26C72.0549 143.647 71.6718 144.022 71.1593 144.383L72.5218 145.759L73.359 143.864H76.0916L75.2011 146.012ZM70.4133 141.7C70.4133 141.211 70.1901 140.966 69.7435 140.966C69.2767 140.966 69.0432 141.224 69.0432 141.738C69.0432 141.963 69.1117 142.189 69.2487 142.419C69.3452 142.587 69.4949 142.776 69.6978 142.984C69.8095 142.872 69.8983 142.781 69.9642 142.709C70.0556 142.607 70.1317 142.511 70.1926 142.419C70.3398 142.184 70.4133 141.945 70.4133 141.7ZM69.2107 145.928C68.9316 146.152 68.7312 146.343 68.6094 146.501C68.4216 146.745 68.3277 147.005 68.3277 147.281C68.3277 148.04 68.7692 148.42 69.6522 148.42C70.2307 148.42 70.6975 148.211 71.0527 147.793L69.2107 145.928Z" fill="white"></path><path d="M93.3168 150.675H90.7288L89.001 143.176H88.9705L87.2351 150.675H84.571L81.5948 139.086H84.5862L86.1314 146.623H86.1618L87.8592 139.086H90.1199L91.7869 146.654H91.8173L93.3929 139.086H96.3767L93.3168 150.675Z" fill="white"></path><path d="M104.567 150.675L104.004 149.001H99.9998L99.3909 150.675H96.2244L100.852 139.086H103.174L107.764 150.675H104.567ZM102.04 142.694H101.994L100.807 146.654H103.227L102.04 142.694Z" fill="white"></path><path d="M111.767 141.685V143.657H115.117V146.256H111.767V150.675H108.944V139.086H115.238V141.685H111.767Z" fill="white"></path><path d="M119.653 141.685V143.657H123.002V146.256H119.653V150.675H116.829V139.086H123.124V141.685H119.653Z" fill="white"></path><path d="M124.791 150.675V139.086H127.737V148.076H131.154V150.675H124.791Z" fill="white"></path><path d="M132.311 150.675V139.086H138.72V141.685H135.135V143.489H138.606V146.088H135.135V148.076H138.72V150.675H132.311Z" fill="white"></path><path d="M148.075 147.342C148.075 148.504 147.689 149.398 146.918 150.025C146.208 150.606 145.254 150.896 144.056 150.896C142.833 150.896 141.849 150.591 141.103 149.979C140.296 149.327 139.893 148.404 139.893 147.212V146.837H142.823C142.823 147.265 142.917 147.625 143.105 147.915C143.318 148.251 143.625 148.42 144.026 148.42C144.772 148.42 145.145 148.05 145.145 147.311C145.145 146.975 145.015 146.702 144.756 146.493C144.655 146.412 144.523 146.33 144.361 146.249L144.14 146.142L142.884 145.599C142.468 145.426 142.11 145.25 141.811 145.071C141.455 144.862 141.156 144.636 140.912 144.391C140.349 143.815 140.068 143.112 140.068 142.281C140.068 141.257 140.494 140.419 141.346 139.766C142.128 139.17 143.046 138.872 144.102 138.872C144.695 138.872 145.264 138.979 145.807 139.193C146.395 139.427 146.867 139.759 147.223 140.187C147.7 140.778 147.953 141.54 147.984 142.472H145.068C144.957 141.718 144.604 141.341 144.01 141.341C143.336 141.341 142.998 141.644 142.998 142.251C142.998 142.465 143.034 142.628 143.105 142.74C143.221 142.939 143.574 143.183 144.163 143.474L145.381 144.024C145.807 144.218 146.162 144.404 146.446 144.582C146.791 144.796 147.075 145.023 147.299 145.262C147.816 145.813 148.075 146.506 148.075 147.342Z" fill="white"></path><path d="M161.822 147.342C161.822 148.504 161.436 149.398 160.665 150.025C159.954 150.606 159 150.896 157.803 150.896C156.58 150.896 155.595 150.591 154.849 149.979C154.043 149.327 153.639 148.404 153.639 147.212V146.837H156.57C156.57 147.265 156.664 147.625 156.851 147.915C157.064 148.251 157.371 148.42 157.772 148.42C158.518 148.42 158.891 148.05 158.891 147.311C158.891 146.975 158.762 146.702 158.503 146.493C158.402 146.412 158.27 146.33 158.107 146.249L157.886 146.142L156.631 145.599C156.214 145.426 155.857 145.25 155.557 145.071C155.202 144.862 154.903 144.636 154.659 144.391C154.096 143.815 153.814 143.112 153.814 142.281C153.814 141.257 154.24 140.419 155.093 139.766C155.874 139.17 156.793 138.872 157.848 138.872C158.442 138.872 159.01 138.979 159.553 139.193C160.142 139.427 160.614 139.759 160.969 140.187C161.446 140.778 161.7 141.54 161.73 142.472H158.815C158.703 141.718 158.351 141.341 157.757 141.341C157.082 141.341 156.745 141.644 156.745 142.251C156.745 142.465 156.78 142.628 156.851 142.74C156.968 142.939 157.321 143.183 157.909 143.474L159.127 144.024C159.553 144.218 159.909 144.404 160.193 144.582C160.538 144.796 160.822 145.023 161.045 145.262C161.563 145.813 161.822 146.506 161.822 147.342Z" fill="white"></path><path d="M163.23 150.675V139.086H166.176V150.675H163.23Z" fill="white"></path><path d="M175.439 150.675L171.047 143.627L171.009 143.642L171.093 150.675H168.269V139.086H170.811L175.271 146.371L175.302 146.34L175.173 139.086H177.996V150.675H175.439Z" fill="white"></path><path d="M191.538 146.34C191.203 147.701 190.495 148.802 189.414 149.643C188.343 150.478 187.108 150.896 185.707 150.896C184.022 150.896 182.589 150.315 181.407 149.153C180.219 147.986 179.625 146.557 179.625 144.865C179.625 143.178 180.214 141.754 181.391 140.592C182.563 139.445 183.992 138.872 185.677 138.872C187.869 138.872 189.561 139.779 190.754 141.593C191.17 142.22 191.431 142.852 191.538 143.489H188.447C187.935 142.144 187.006 141.471 185.661 141.471C184.753 141.471 184.005 141.81 183.416 142.488C182.853 143.14 182.571 143.927 182.571 144.85C182.571 145.782 182.853 146.58 183.416 147.242C184.01 147.946 184.763 148.297 185.677 148.297C186.935 148.297 187.859 147.645 188.447 146.34H191.538Z" fill="white"></path><path d="M193.068 150.675V139.086H199.477V141.685H195.891V143.489H199.362V146.088H195.891V148.076H199.477V150.675H193.068Z" fill="white"></path><path d="M205.863 150.675V148.374C206.243 148.124 206.56 147.913 206.814 147.739C207.149 147.51 207.451 147.291 207.72 147.082C208.359 146.587 208.915 146.078 209.387 145.553C209.58 145.344 209.757 145.135 209.92 144.926C210.118 144.671 210.29 144.424 210.437 144.185C210.798 143.588 210.978 143.058 210.978 142.595C210.978 141.845 210.615 141.471 209.889 141.471C209.412 141.471 209.065 141.667 208.847 142.059C208.684 142.35 208.59 142.763 208.565 143.298H205.756C205.771 142.737 205.822 142.276 205.908 141.914C206.01 141.456 206.188 141.03 206.441 140.638C206.817 140.057 207.332 139.611 207.986 139.3C208.595 139.015 209.265 138.872 209.996 138.872C210.787 138.872 211.495 139.035 212.12 139.361C212.805 139.718 213.307 140.233 213.627 140.905C213.825 141.354 213.923 141.797 213.923 142.235C213.923 142.832 213.804 143.423 213.566 144.009C213.358 144.529 213.053 145.054 212.652 145.584C212.323 146.022 211.911 146.483 211.419 146.967C211.221 147.161 210.998 147.37 210.749 147.594C210.577 147.757 210.356 147.953 210.087 148.183H214V150.675H205.863Z" fill="white"></path><path d="M223.819 146.493C223.819 147.395 223.631 148.183 223.255 148.855C222.849 149.569 222.253 150.106 221.467 150.468C220.878 150.754 220.244 150.896 219.564 150.896C218.965 150.896 218.379 150.777 217.805 150.537C216.08 149.808 215.217 148.46 215.217 146.493V143.267C215.217 141.264 216.085 139.914 217.821 139.216C218.409 138.986 218.99 138.872 219.564 138.872C220.157 138.872 220.746 138.997 221.33 139.246C222.989 139.975 223.819 141.315 223.819 143.267V146.493ZM220.873 143.191C220.873 142.676 220.782 142.276 220.599 141.991C220.371 141.644 220.01 141.471 219.518 141.471C219.051 141.471 218.699 141.647 218.46 141.998C218.262 142.299 218.163 142.697 218.163 143.191V146.57C218.163 147.069 218.262 147.469 218.46 147.77C218.693 148.121 219.046 148.297 219.518 148.297C220.01 148.297 220.371 148.124 220.599 147.777C220.782 147.487 220.873 147.084 220.873 146.57V143.191Z" fill="white"></path><path d="M233.455 146.493C233.455 147.395 233.267 148.183 232.892 148.855C232.486 149.569 231.89 150.106 231.103 150.468C230.514 150.754 229.88 150.896 229.2 150.896C228.601 150.896 228.015 150.777 227.442 150.537C225.716 149.808 224.854 148.46 224.854 146.493V143.267C224.854 141.264 225.722 139.914 227.457 139.216C228.046 138.986 228.627 138.872 229.2 138.872C229.794 138.872 230.382 138.997 230.966 139.246C232.625 139.975 233.455 141.315 233.455 143.267V146.493ZM230.509 143.191C230.509 142.676 230.418 142.276 230.235 141.991C230.007 141.644 229.647 141.471 229.154 141.471C228.688 141.471 228.335 141.647 228.096 141.998C227.898 142.299 227.8 142.697 227.8 143.191V146.57C227.8 147.069 227.898 147.469 228.096 147.77C228.33 148.121 228.682 148.297 229.154 148.297C229.647 148.297 230.007 148.124 230.235 147.777C230.418 147.487 230.509 147.084 230.509 146.57V143.191Z" fill="white"></path><path d="M243 147.265C243 148.325 242.543 149.209 241.63 149.918C240.788 150.57 239.821 150.896 238.73 150.896C238.025 150.896 237.357 150.764 236.728 150.499C236.013 150.208 235.48 149.798 235.13 149.268C234.932 148.967 234.782 148.639 234.68 148.282C234.599 147.991 234.536 147.635 234.49 147.212H237.466C237.629 147.935 238.075 148.297 238.806 148.297C239.638 148.297 240.054 147.864 240.054 146.998C240.054 146.407 239.737 146.037 239.103 145.889C238.88 145.838 238.598 145.813 238.258 145.813L237.466 145.821V143.642H237.794C237.921 143.642 238.032 143.639 238.129 143.634C238.382 143.614 238.593 143.573 238.76 143.512C239.197 143.349 239.415 143.007 239.415 142.488C239.415 141.81 239.146 141.471 238.608 141.471C238.019 141.471 237.718 141.805 237.702 142.472H234.802C234.817 141.356 235.208 140.467 235.974 139.804C236.7 139.183 237.624 138.872 238.745 138.872C239.714 138.872 240.547 139.15 241.242 139.705C241.988 140.306 242.361 141.084 242.361 142.037C242.361 143.102 241.853 143.909 240.838 144.46C242.279 144.954 243 145.889 243 147.265Z" fill="white"></path></svg>